<?xml version="1.0" encoding="UTF-8" standalone="no"?>
<!DOCTYPE svg PUBLIC "-//W3C//DTD SVG 1.1//EN"
 "http://www.w3.org/Graphics/SVG/1.1/DTD/svg11.dtd">
<!-- Generated by graphviz version 2.46.0 (20210119.1425)
 -->
<!-- Title: dependencies Pages: 1 -->
<svg width="504pt" height="284pt"
 viewBox="0.00 0.00 504.00 284.00" xmlns="http://www.w3.org/2000/svg" xmlns:xlink="http://www.w3.org/1999/xlink">
<g id="graph0" class="graph" transform="scale(1 1) rotate(0) translate(4 280)">
<title>dependencies</title>
<polygon fill="white" stroke="transparent" points="-4,4 -4,-280 500,-280 500,4 -4,4"/>
<text text-anchor="start" x="227.01" y="-42.4" font-family="sans-serif" font-weight="bold" font-size="14.00">Legend</text>
<polygon fill="#ffffb3" stroke="transparent" points="14,-10 14,-30 34,-30 34,-10 14,-10"/>
<text text-anchor="start" x="37.63" y="-15.4" font-family="sans-serif" font-size="14.00"> &#160;Declarations</text>
<polygon fill="#8dd3c7" stroke="transparent" points="127,-10 127,-30 147,-30 147,-10 127,-10"/>
<text text-anchor="start" x="150.73" y="-15.4" font-family="sans-serif" font-size="14.00"> &#160;Module</text>
<polygon fill="#80b1d3" stroke="transparent" points="213,-10 213,-30 233,-30 233,-10 213,-10"/>
<text text-anchor="start" x="236.78" y="-15.4" font-family="sans-serif" font-size="14.00"> &#160;Bootstrap</text>
<polygon fill="#fdb462" stroke="transparent" points="310,-10 310,-30 330,-30 330,-10 310,-10"/>
<text text-anchor="start" x="333.67" y="-15.4" font-family="sans-serif" font-size="14.00"> &#160;Providers</text>
<polygon fill="#fb8072" stroke="transparent" points="406,-10 406,-30 426,-30 426,-10 406,-10"/>
<text text-anchor="start" x="429.73" y="-15.4" font-family="sans-serif" font-size="14.00"> &#160;Exports</text>
<g id="clust1" class="cluster">
<title>cluster_AuthModule</title>
<polygon fill="none" stroke="black" stroke-dasharray="1,5" points="101,-70 101,-268 395,-268 395,-70 101,-70"/>
</g>
<g id="clust6" class="cluster">
<title>cluster_AuthModule_providers</title>
<polygon fill="none" stroke="black" points="109,-78 109,-130 387,-130 387,-78 109,-78"/>
</g>
<g id="clust4" class="cluster">
<title>cluster_AuthModule_exports</title>
<polygon fill="none" stroke="black" points="128,-208 128,-260 346,-260 346,-208 128,-208"/>
</g>
<!-- AuthService  -->
<g id="node1" class="node">
<title>AuthService </title>
<polygon fill="#fb8072" stroke="black" points="337.98,-252 248.02,-252 248.02,-216 337.98,-216 337.98,-252"/>
<text text-anchor="middle" x="293" y="-229.8" font-family="Times,serif" font-size="14.00">AuthService </text>
</g>
<!-- AuthStrategy  -->
<g id="node2" class="node">
<title>AuthStrategy </title>
<polygon fill="#fb8072" stroke="black" points="230.15,-252 135.85,-252 135.85,-216 230.15,-216 230.15,-252"/>
<text text-anchor="middle" x="183" y="-229.8" font-family="Times,serif" font-size="14.00">AuthStrategy </text>
</g>
<!-- AuthModule -->
<g id="node3" class="node">
<title>AuthModule</title>
<polygon fill="#8dd3c7" stroke="black" points="245.55,-187 242.55,-191 221.55,-191 218.55,-187 158.45,-187 158.45,-151 245.55,-151 245.55,-187"/>
<text text-anchor="middle" x="202" y="-164.8" font-family="Times,serif" font-size="14.00">AuthModule</text>
</g>
<!-- AuthModule&#45;&gt;AuthService  -->
<g id="edge1" class="edge">
<title>AuthModule&#45;&gt;AuthService </title>
<path fill="none" stroke="black" stroke-dasharray="5,2" d="M245.81,-175C250.99,-175 254.48,-175 254.48,-175 254.48,-175 254.48,-205.98 254.48,-205.98"/>
<polygon fill="black" stroke="black" points="250.98,-205.98 254.48,-215.98 257.98,-205.98 250.98,-205.98"/>
</g>
<!-- AuthModule&#45;&gt;AuthStrategy  -->
<g id="edge2" class="edge">
<title>AuthModule&#45;&gt;AuthStrategy </title>
<path fill="none" stroke="black" stroke-dasharray="5,2" d="M194.15,-187.11C194.15,-187.11 194.15,-205.99 194.15,-205.99"/>
<polygon fill="black" stroke="black" points="190.65,-205.99 194.15,-215.99 197.65,-205.99 190.65,-205.99"/>
</g>
<!-- AuthService -->
<g id="node4" class="node">
<title>AuthService</title>
<ellipse fill="#fdb462" stroke="black" cx="320" cy="-104" rx="59.11" ry="18"/>
<text text-anchor="middle" x="320" y="-99.8" font-family="Times,serif" font-size="14.00">AuthService</text>
</g>
<!-- AuthService&#45;&gt;AuthModule -->
<g id="edge3" class="edge">
<title>AuthService&#45;&gt;AuthModule</title>
<path fill="none" stroke="black" d="M299.22,-121.07C299.22,-138.49 299.22,-163 299.22,-163 299.22,-163 255.77,-163 255.77,-163"/>
<polygon fill="black" stroke="black" points="255.77,-159.5 245.77,-163 255.77,-166.5 255.77,-159.5"/>
</g>
<!-- AuthStrategy -->
<g id="node5" class="node">
<title>AuthStrategy</title>
<ellipse fill="#fdb462" stroke="black" cx="180" cy="-104" rx="62.56" ry="18"/>
<text text-anchor="middle" x="180" y="-99.8" font-family="Times,serif" font-size="14.00">AuthStrategy</text>
</g>
<!-- AuthStrategy&#45;&gt;AuthModule -->
<g id="edge4" class="edge">
<title>AuthStrategy&#45;&gt;AuthModule</title>
<path fill="none" stroke="black" d="M200.38,-121.08C200.38,-121.08 200.38,-140.9 200.38,-140.9"/>
<polygon fill="black" stroke="black" points="196.88,-140.9 200.38,-150.9 203.88,-140.9 196.88,-140.9"/>
</g>
</g>
</svg>
