<?xml version="1.0" encoding="UTF-8" standalone="no"?>
<!DOCTYPE svg PUBLIC "-//W3C//DTD SVG 1.1//EN"
 "http://www.w3.org/Graphics/SVG/1.1/DTD/svg11.dtd">
<!-- Generated by graphviz version 2.46.0 (20210119.1425)
 -->
<!-- Title: dependencies Pages: 1 -->
<svg width="1229pt" height="287pt"
 viewBox="0.00 0.00 1229.00 287.00" xmlns="http://www.w3.org/2000/svg" xmlns:xlink="http://www.w3.org/1999/xlink">
<g id="graph0" class="graph" transform="scale(1 1) rotate(0) translate(4 283)">
<title>dependencies</title>
<polygon fill="white" stroke="transparent" points="-4,4 -4,-283 1225,-283 1225,4 -4,4"/>
<text text-anchor="start" x="589.51" y="-42.4" font-family="sans-serif" font-weight="bold" font-size="14.00">Legend</text>
<polygon fill="#ffffb3" stroke="transparent" points="376.5,-10 376.5,-30 396.5,-30 396.5,-10 376.5,-10"/>
<text text-anchor="start" x="400.13" y="-15.4" font-family="sans-serif" font-size="14.00"> &#160;Declarations</text>
<polygon fill="#8dd3c7" stroke="transparent" points="489.5,-10 489.5,-30 509.5,-30 509.5,-10 489.5,-10"/>
<text text-anchor="start" x="513.23" y="-15.4" font-family="sans-serif" font-size="14.00"> &#160;Module</text>
<polygon fill="#80b1d3" stroke="transparent" points="575.5,-10 575.5,-30 595.5,-30 595.5,-10 575.5,-10"/>
<text text-anchor="start" x="599.28" y="-15.4" font-family="sans-serif" font-size="14.00"> &#160;Bootstrap</text>
<polygon fill="#fdb462" stroke="transparent" points="672.5,-10 672.5,-30 692.5,-30 692.5,-10 672.5,-10"/>
<text text-anchor="start" x="696.17" y="-15.4" font-family="sans-serif" font-size="14.00"> &#160;Providers</text>
<polygon fill="#fb8072" stroke="transparent" points="768.5,-10 768.5,-30 788.5,-30 788.5,-10 768.5,-10"/>
<text text-anchor="start" x="792.23" y="-15.4" font-family="sans-serif" font-size="14.00"> &#160;Exports</text>
<g id="clust1" class="cluster">
<title>cluster_AppModule</title>
<polygon fill="none" stroke="black" stroke-dasharray="1,5" points="174,-70 174,-271 403,-271 403,-70 174,-70"/>
</g>
<g id="clust3" class="cluster">
<title>cluster_AppModule_imports</title>
<polygon fill="none" stroke="black" points="182,-78 182,-206 395,-206 395,-78 182,-78"/>
</g>
<g id="clust7" class="cluster">
<title>cluster_AuthModule</title>
<polygon fill="none" stroke="black" stroke-dasharray="1,5" points="411,-146 411,-214 931,-214 931,-146 411,-146"/>
</g>
<g id="clust10" class="cluster">
<title>cluster_AuthModule_exports</title>
<polygon fill="none" stroke="black" points="705,-154 705,-206 923,-206 923,-154 705,-154"/>
</g>
<g id="clust12" class="cluster">
<title>cluster_AuthModule_providers</title>
<polygon fill="none" stroke="black" points="419,-154 419,-206 697,-206 697,-154 419,-154"/>
</g>
<g id="clust13" class="cluster">
<title>cluster_TasksModule</title>
<polygon fill="none" stroke="black" stroke-dasharray="1,5" points="8,-70 8,-138 166,-138 166,-70 8,-70"/>
</g>
<g id="clust18" class="cluster">
<title>cluster_TasksModule_providers</title>
<polygon fill="none" stroke="black" points="16,-78 16,-130 158,-130 158,-78 16,-78"/>
</g>
<g id="clust19" class="cluster">
<title>cluster_UsersModule</title>
<polygon fill="none" stroke="black" stroke-dasharray="1,5" points="939,-146 939,-214 1213,-214 1213,-146 939,-146"/>
</g>
<g id="clust22" class="cluster">
<title>cluster_UsersModule_exports</title>
<polygon fill="none" stroke="black" points="1095,-154 1095,-206 1205,-206 1205,-154 1095,-154"/>
</g>
<g id="clust24" class="cluster">
<title>cluster_UsersModule_providers</title>
<polygon fill="none" stroke="black" points="947,-154 947,-206 1087,-206 1087,-154 947,-154"/>
</g>
<!-- AuthModule -->
<g id="node1" class="node">
<title>AuthModule</title>
<polygon fill="#8dd3c7" stroke="black" points="277.55,-122 274.55,-126 253.55,-126 250.55,-122 190.45,-122 190.45,-86 277.55,-86 277.55,-122"/>
<text text-anchor="middle" x="234" y="-99.8" font-family="Times,serif" font-size="14.00">AuthModule</text>
</g>
<!-- TasksModule -->
<g id="node2" class="node">
<title>TasksModule</title>
<polygon fill="#8dd3c7" stroke="black" points="282.21,-198 279.21,-202 258.21,-202 255.21,-198 189.79,-198 189.79,-162 282.21,-162 282.21,-198"/>
<text text-anchor="middle" x="236" y="-175.8" font-family="Times,serif" font-size="14.00">TasksModule</text>
</g>
<!-- AuthModule&#45;&gt;TasksModule -->
<g id="edge8" class="edge">
<title>AuthModule&#45;&gt;TasksModule</title>
<path fill="none" stroke="black" d="M207.74,-122.01C207.74,-122.01 207.74,-151.85 207.74,-151.85"/>
<polygon fill="black" stroke="black" points="204.24,-151.85 207.74,-161.85 211.24,-151.85 204.24,-151.85"/>
</g>
<!-- AppModule -->
<g id="node4" class="node">
<title>AppModule</title>
<polygon fill="#8dd3c7" stroke="black" points="342.66,-263 339.66,-267 318.66,-267 315.66,-263 259.34,-263 259.34,-227 342.66,-227 342.66,-263"/>
<text text-anchor="middle" x="301" y="-240.8" font-family="Times,serif" font-size="14.00">AppModule</text>
</g>
<!-- AuthModule&#45;&gt;AppModule -->
<g id="edge1" class="edge">
<title>AuthModule&#45;&gt;AppModule</title>
<path fill="none" stroke="black" d="M277.83,-110C283.01,-110 286.5,-110 286.5,-110 286.5,-110 286.5,-216.79 286.5,-216.79"/>
<polygon fill="black" stroke="black" points="283,-216.79 286.5,-226.79 290,-216.79 283,-216.79"/>
</g>
<!-- AuthService  -->
<g id="node5" class="node">
<title>AuthService </title>
<polygon fill="#fb8072" stroke="black" points="914.98,-198 825.02,-198 825.02,-162 914.98,-162 914.98,-198"/>
<text text-anchor="middle" x="870" y="-175.8" font-family="Times,serif" font-size="14.00">AuthService </text>
</g>
<!-- AuthModule&#45;&gt;AuthService  -->
<g id="edge4" class="edge">
<title>AuthModule&#45;&gt;AuthService </title>
<path fill="none" stroke="black" stroke-dasharray="5,2" d="M242.75,-122.21C242.75,-127.55 242.75,-132 242.75,-132 242.75,-132 870,-132 870,-132 870,-132 870,-151.85 870,-151.85"/>
<polygon fill="black" stroke="black" points="866.5,-151.85 870,-161.85 873.5,-151.85 866.5,-151.85"/>
</g>
<!-- AuthStrategy  -->
<g id="node6" class="node">
<title>AuthStrategy </title>
<polygon fill="#fb8072" stroke="black" points="807.15,-198 712.85,-198 712.85,-162 807.15,-162 807.15,-198"/>
<text text-anchor="middle" x="760" y="-175.8" font-family="Times,serif" font-size="14.00">AuthStrategy </text>
</g>
<!-- AuthModule&#45;&gt;AuthStrategy  -->
<g id="edge5" class="edge">
<title>AuthModule&#45;&gt;AuthStrategy </title>
<path fill="none" stroke="black" stroke-dasharray="5,2" d="M225.25,-122.11C225.25,-131.9 225.25,-142 225.25,-142 225.25,-142 760,-142 760,-142 760,-142 760,-151.89 760,-151.89"/>
<polygon fill="black" stroke="black" points="756.5,-151.89 760,-161.89 763.5,-151.89 756.5,-151.89"/>
</g>
<!-- TasksModule&#45;&gt;AppModule -->
<g id="edge2" class="edge">
<title>TasksModule&#45;&gt;AppModule</title>
<path fill="none" stroke="black" d="M270.64,-198.11C270.64,-198.11 270.64,-216.99 270.64,-216.99"/>
<polygon fill="black" stroke="black" points="267.14,-216.99 270.64,-226.99 274.14,-216.99 267.14,-216.99"/>
</g>
<!-- UsersModule -->
<g id="node3" class="node">
<title>UsersModule</title>
<polygon fill="#8dd3c7" stroke="black" points="386.92,-122 383.92,-126 362.92,-126 359.92,-122 295.08,-122 295.08,-86 386.92,-86 386.92,-122"/>
<text text-anchor="middle" x="341" y="-99.8" font-family="Times,serif" font-size="14.00">UsersModule</text>
</g>
<!-- UsersModule&#45;&gt;AppModule -->
<g id="edge3" class="edge">
<title>UsersModule&#45;&gt;AppModule</title>
<path fill="none" stroke="black" d="M319.06,-122.14C319.06,-122.14 319.06,-216.93 319.06,-216.93"/>
<polygon fill="black" stroke="black" points="315.56,-216.92 319.06,-226.93 322.56,-216.93 315.56,-216.92"/>
</g>
<!-- UsersService  -->
<g id="node10" class="node">
<title>UsersService </title>
<polygon fill="#fb8072" stroke="black" points="1196.85,-198 1103.15,-198 1103.15,-162 1196.85,-162 1196.85,-198"/>
<text text-anchor="middle" x="1150" y="-175.8" font-family="Times,serif" font-size="14.00">UsersService </text>
</g>
<!-- UsersModule&#45;&gt;UsersService  -->
<g id="edge10" class="edge">
<title>UsersModule&#45;&gt;UsersService </title>
<path fill="none" stroke="black" stroke-dasharray="5,2" d="M386.81,-98C557.95,-98 1150,-98 1150,-98 1150,-98 1150,-151.8 1150,-151.8"/>
<polygon fill="black" stroke="black" points="1146.5,-151.8 1150,-161.8 1153.5,-151.8 1146.5,-151.8"/>
</g>
<!-- AuthService -->
<g id="node7" class="node">
<title>AuthService</title>
<ellipse fill="#fdb462" stroke="black" cx="630" cy="-180" rx="59.11" ry="18"/>
<text text-anchor="middle" x="630" y="-175.8" font-family="Times,serif" font-size="14.00">AuthService</text>
</g>
<!-- AuthService&#45;&gt;AuthModule -->
<g id="edge6" class="edge">
<title>AuthService&#45;&gt;AuthModule</title>
<path fill="none" stroke="black" d="M630,-161.79C630,-156.45 630,-152 630,-152 630,-152 260.26,-152 260.26,-152 260.26,-152 260.26,-132.15 260.26,-132.15"/>
<polygon fill="black" stroke="black" points="263.76,-132.15 260.26,-122.15 256.76,-132.15 263.76,-132.15"/>
</g>
<!-- AuthStrategy -->
<g id="node8" class="node">
<title>AuthStrategy</title>
<ellipse fill="#fdb462" stroke="black" cx="490" cy="-180" rx="62.56" ry="18"/>
<text text-anchor="middle" x="490" y="-175.8" font-family="Times,serif" font-size="14.00">AuthStrategy</text>
</g>
<!-- AuthStrategy&#45;&gt;AuthModule -->
<g id="edge7" class="edge">
<title>AuthStrategy&#45;&gt;AuthModule</title>
<path fill="none" stroke="black" d="M427.27,-180C368.91,-180 290.89,-180 290.89,-180 290.89,-180 290.89,-98 290.89,-98 290.89,-98 287.7,-98 287.7,-98"/>
<polygon fill="black" stroke="black" points="287.7,-94.5 277.7,-98 287.7,-101.5 287.7,-94.5"/>
</g>
<!-- TasksService -->
<g id="node9" class="node">
<title>TasksService</title>
<ellipse fill="#fdb462" stroke="black" cx="87" cy="-104" rx="62.54" ry="18"/>
<text text-anchor="middle" x="87" y="-99.8" font-family="Times,serif" font-size="14.00">TasksService</text>
</g>
<!-- TasksService&#45;&gt;TasksModule -->
<g id="edge9" class="edge">
<title>TasksService&#45;&gt;TasksModule</title>
<path fill="none" stroke="black" d="M87,-122.01C87,-144.49 87,-180 87,-180 87,-180 179.67,-180 179.67,-180"/>
<polygon fill="black" stroke="black" points="179.67,-183.5 189.67,-180 179.67,-176.5 179.67,-183.5"/>
</g>
<!-- UsersService -->
<g id="node11" class="node">
<title>UsersService</title>
<ellipse fill="#fdb462" stroke="black" cx="1017" cy="-180" rx="61.95" ry="18"/>
<text text-anchor="middle" x="1017" y="-175.8" font-family="Times,serif" font-size="14.00">UsersService</text>
</g>
<!-- UsersService&#45;&gt;UsersModule -->
<g id="edge11" class="edge">
<title>UsersService&#45;&gt;UsersModule</title>
<path fill="none" stroke="black" d="M1017,-161.97C1017,-141.23 1017,-110 1017,-110 1017,-110 396.93,-110 396.93,-110"/>
<polygon fill="black" stroke="black" points="396.93,-106.5 386.93,-110 396.93,-113.5 396.93,-106.5"/>
</g>
</g>
</svg>
